<svg width="100" height="100" viewBox="0 0 33 33" fill="none" xmlns="http://www.w3.org/2000/svg">
<path fill-rule="evenodd" clip-rule="evenodd" d="M16.5 0C25.6133 0 33 7.38666 33 16.5C33 25.6133 25.6133 33 16.5 33C7.38666 33 0 25.6133 0 16.5C0 7.38666 7.38666 0 16.5 0Z" fill="#F0B90B"/>
<path d="M9.06844 16.5001L9.08034 20.8631L12.7875 23.0445V25.5989L6.91075 22.1521V15.2242L9.06844 16.5001ZM9.06844 12.1371V14.6795L6.90942 13.4024V10.8599L9.06844 9.58276L11.238 10.8599L9.06844 12.1371ZM14.3357 10.8599L16.4948 9.58276L18.6644 10.8599L16.4948 12.1371L14.3357 10.8599Z" fill="white"/>
<path d="M10.6285 19.9587V17.4044L12.7876 18.6816V21.224L10.6285 19.9587ZM14.3358 23.9594L16.4948 25.2366L18.6644 23.9594V26.5019L16.4948 27.779L14.3358 26.5019V23.9594ZM21.7608 10.8599L23.9198 9.58276L26.0894 10.8599V13.4024L23.9198 14.6795V12.1371L21.7608 10.8599ZM23.9198 20.8631L23.9317 16.5001L26.0907 15.2229V22.1508L20.2139 25.5975V23.0432L23.9198 20.8631Z" fill="white"/>
<path d="M22.3715 19.9586L20.2125 21.2239V18.6815L22.3715 17.4043V19.9586Z" fill="white"/>
<path d="M22.3716 13.0413L22.3835 15.5956L18.6657 17.7771V22.1506L16.5067 23.4159L14.3476 22.1506V17.7771L10.6299 15.5956V13.0413L12.7981 11.7641L16.4934 13.9562L20.2112 11.7641L22.3808 13.0413H22.3716ZM10.6285 8.6796L16.4948 5.22095L22.3716 8.6796L20.2126 9.95676L16.4948 7.7647L12.7876 9.95676L10.6285 8.6796Z" fill="white"/>
</svg>
