<svg width="80" height="84" viewBox="0 0 80 84" fill="none" xmlns="http://www.w3.org/2000/svg">
<g filter="url(#filter0_i_5_164)">
<path d="M22.1686 23.8851C23.7462 23.8921 25.288 23.7655 26.8656 23.7725C28.4431 23.7796 29.9849 23.6529 31.5625 23.66C31.9993 23.6862 32.0971 23.5167 32.1233 23.0799C32.0491 20.6646 32.0108 18.383 31.9366 15.9677C31.9628 15.5309 32.0606 15.3615 32.4974 15.3877C33.9413 15.4305 35.2158 15.3755 36.6239 15.2847C37.0607 15.3109 37.0965 15.4446 37.0345 15.7477C37.0728 18.0293 37.147 20.4446 37.1854 22.7263C37.2212 22.8599 37.257 22.9936 37.195 23.2967C38.3358 23.2775 39.6103 23.2225 40.7511 23.2033C40.8848 23.1675 40.9468 22.8644 41.0447 22.6949C40.9801 20.85 40.9513 19.1388 41.0203 17.2581C41.0107 16.6877 41.0011 16.1173 40.9915 15.5469C40.9199 15.2796 41.0178 15.1101 41.3209 15.1721C42.7648 15.215 44.1729 15.1241 45.7505 15.1312C45.8842 15.0954 45.92 15.229 46.0536 15.1932C46.1182 17.0381 46.147 18.7493 46.1758 20.4606C46.2212 21.1646 46.2666 21.8687 46.1784 22.6086C46.1522 23.0453 46.3216 23.1432 46.7584 23.1694C48.4076 23.4437 50.0568 23.718 51.706 23.9924C53.2574 24.4361 54.7467 25.183 56.0404 26.2689C57.7804 27.9513 58.4871 30.0539 58.5254 32.3356C58.5184 33.9131 58.3419 35.3929 57.5592 36.7486C56.9722 37.7654 56.0462 38.5865 55.0845 39.2739C54.9508 39.3097 54.853 39.4792 54.5857 39.5508C55.2277 39.8085 55.8339 39.9326 56.476 40.1903C58.4021 40.9634 59.8652 42.147 60.9012 43.8749C61.5624 45.2734 61.8585 46.913 61.8515 48.4906C61.8182 50.505 61.5797 52.2878 60.7708 54.0803C59.7662 56.2117 58.1457 57.6486 56.079 58.4889C53.3797 59.6419 50.6351 60.0908 47.8547 60.4061C47.4179 60.3799 47.1864 60.5851 47.1602 61.0219C47.1986 63.3035 47.2728 65.7188 47.3112 68.0005C47.3208 68.5709 47.3566 68.7046 46.6167 68.6163C45.3422 68.6713 43.8983 68.6285 42.6238 68.6835C42.187 68.6573 42.1512 68.5236 42.2133 68.2205C42.1391 65.8052 42.0649 63.3899 42.1601 61.0724C42.0885 60.8051 42.1864 60.6357 41.8832 60.5737C40.7424 60.5928 39.6016 60.612 38.3271 60.667C38.3821 61.9415 38.3035 63.2518 38.3585 64.5263C38.4135 65.8008 38.3348 67.111 38.3898 68.3855C38.3278 68.6886 38.3636 68.8223 37.9269 68.7961C36.4829 68.7532 35.0748 68.844 33.6667 68.9349C33.2299 68.9086 33.1941 68.775 33.2561 68.4719C33.1819 66.0566 33.1077 63.6413 33.203 61.3238C33.1672 61.1902 33.265 61.0207 33.1934 60.7534C29.9046 60.7752 26.6158 60.7969 23.1933 60.8545C23.3173 60.2483 23.3435 59.8115 23.4676 59.2053C23.6799 57.8592 23.8922 56.5131 24.0067 55.3365C24.0329 54.8997 24.1665 54.8639 24.5675 54.7564C25.5746 54.7731 26.7155 54.7539 27.6868 54.6368C28.8277 54.6177 29.4863 53.8682 29.3693 52.8968C29.2804 45.6151 29.1914 38.3334 28.933 30.9538C28.9138 29.813 27.9233 28.7892 26.613 28.7106C25.3027 28.6319 24.0282 28.6869 22.8874 28.7061C22.6201 28.7777 22.4506 28.6799 22.5127 28.3768C22.5197 26.7992 22.4909 25.088 22.4979 23.5104C22.0708 24.0546 22.0708 24.0546 22.1686 23.8851ZM37.8302 55.0703C37.9639 55.0345 38.1333 55.1324 38.1333 55.1324C40.415 55.094 42.8661 55.1534 45.174 54.6783C46.8136 54.3822 48.2837 53.9883 49.6106 53.0598C51.9351 51.5774 52.109 47.9497 50.0659 46.2052C49.1111 45.3151 47.8629 44.9333 46.6146 44.5515C43.8508 43.8597 40.9009 44.0771 38.0847 44.2587C37.6479 44.2325 37.6837 44.3662 37.6575 44.8029C37.7483 46.211 37.6697 47.5213 37.7605 48.9295C37.7272 50.9438 37.8276 52.9223 37.8302 55.0703ZM45.4041 38.4298C45.6714 38.3582 46.3038 38.0455 46.8026 37.7686C49.1987 36.5536 49.7474 33.2552 47.8021 31.3412C46.8115 30.3174 45.3938 29.8378 44.0477 29.6256C41.9617 29.325 39.9832 29.4254 37.8352 29.428C37.3984 29.4018 37.3006 29.5712 37.2744 30.008C37.3581 32.9937 37.4061 35.8458 37.3563 38.8673C37.2942 39.1704 37.4637 39.2683 37.7668 39.3303C38.3372 39.3207 38.774 39.3469 39.3444 39.3373C41.4208 39.0674 43.2657 39.0028 45.4041 38.4298Z" fill="#FF9901"/>
</g>
<defs>
<filter id="filter0_i_5_164" x="22.1155" y="15.125" width="39.7361" height="55.8098" filterUnits="userSpaceOnUse" color-interpolation-filters="sRGB">
<feFlood flood-opacity="0" result="BackgroundImageFix"/>
<feBlend mode="normal" in="SourceGraphic" in2="BackgroundImageFix" result="shape"/>
<feColorMatrix in="SourceAlpha" type="matrix" values="0 0 0 0 0 0 0 0 0 0 0 0 0 0 0 0 0 0 127 0" result="hardAlpha"/>
<feOffset dy="2"/>
<feGaussianBlur stdDeviation="1.5"/>
<feComposite in2="hardAlpha" operator="arithmetic" k2="-1" k3="1"/>
<feColorMatrix type="matrix" values="0 0 0 0 0 0 0 0 0 0 0 0 0 0 0 0 0 0 0.25 0"/>
<feBlend mode="normal" in2="shape" result="effect1_innerShadow_5_164"/>
</filter>
</defs>
</svg>
