<svg width="38" height="37" viewBox="0 0 34 33" fill="none" xmlns="http://www.w3.org/2000/svg">
<path d="M25.9523 2.15301e-06C24.0623 -0.0014651 22.2489 0.747057 20.9102 2.08126C19.5715 3.41546 18.8169 5.22632 18.812 7.11633V15.0066C18.0767 15.0563 17.3248 15.0875 16.5453 15.0875C15.7659 15.0875 15.0176 15.1188 14.2786 15.1629V7.11633C14.2486 5.24271 13.4832 3.456 12.1475 2.14165C10.8119 0.827302 9.01318 0.0906703 7.13931 0.0906703C5.26545 0.0906703 3.46668 0.827302 2.13107 2.14165C0.795465 3.456 0.0300666 5.24271 0 7.11633V25.9743C0.0300666 27.848 0.795465 29.6347 2.13107 30.949C3.46668 32.2634 5.26545 33 7.13931 33C9.01318 33 10.8119 32.2634 12.1475 30.949C13.4832 29.6347 14.2486 27.848 14.2786 25.9743V18.0841C15.014 18.0344 15.7659 18.0032 16.5453 18.0032C17.3248 18.0032 18.073 17.9719 18.812 17.9278V25.9743C18.8421 27.848 19.6075 29.6347 20.9431 30.949C22.2787 32.2634 24.0775 33 25.9514 33C27.8252 33 29.624 32.2634 30.9596 30.949C32.2952 29.6347 33.0606 27.848 33.0907 25.9743V7.11633C33.0858 5.22664 32.3315 3.41606 30.9932 2.08191C29.6549 0.747759 27.842 -0.000977941 25.9523 2.15301e-06ZM7.13839 2.91566C8.25382 2.91517 9.32388 3.35717 10.1138 4.14469C10.9037 4.9322 11.349 6.00091 11.3519 7.11633V15.4717C9.26315 15.7744 7.22337 16.3511 5.28531 17.1869C4.44561 17.5555 3.65514 18.0273 2.9322 18.5914V7.11633C2.93512 6.00219 3.37938 4.93459 4.16772 4.14728C4.95606 3.35997 6.02424 2.91711 7.13839 2.91566ZM11.3519 25.9743C11.3519 27.0918 10.908 28.1636 10.1178 28.9538C9.32763 29.744 8.25589 30.1879 7.13839 30.1879C6.02089 30.1879 4.94916 29.744 4.15897 28.9538C3.36877 28.1636 2.92485 27.0918 2.92485 25.9743V24.0827C2.92485 22.4116 4.24847 20.8287 6.46739 19.8434C8.03087 19.1688 9.67136 18.6891 11.3519 18.415V25.9743ZM25.9523 30.175C24.8368 30.1755 23.7668 29.7335 22.9769 28.946C22.1869 28.1585 21.7416 27.0898 21.7387 25.9743V17.6189C23.8275 17.3163 25.8673 16.7396 27.8053 15.9037C28.6451 15.5352 29.4355 15.0634 30.1585 14.4992V25.9743C30.1555 27.0885 29.7113 28.1561 28.9229 28.9434C28.1346 29.7307 27.0664 30.1736 25.9523 30.175ZM26.6233 13.2363C25.0598 13.9108 23.4193 14.3905 21.7387 14.6647V7.11633C21.7387 5.99883 22.1827 4.9271 22.9728 4.13691C23.763 3.34671 24.8348 2.90279 25.9523 2.90279C27.0698 2.90279 28.1415 3.34671 28.9317 4.13691C29.7219 4.9271 30.1658 5.99883 30.1658 7.11633V9.00802C30.1658 10.6717 28.8422 12.2546 26.6233 13.2363Z" fill="url(#paint0_linear_311_1210)"/>
<defs>
<linearGradient id="paint0_linear_311_1210" x1="2.09574" y1="30.5414" x2="30.8061" y2="1.75263" gradientUnits="userSpaceOnUse">
<stop stop-color="#00AEE9"/>
<stop offset="1" stop-color="#69FABD"/>
</linearGradient>
</defs>
</svg>
