<svg width="45" height="45" viewBox="0 0 33 33" fill="none" xmlns="http://www.w3.org/2000/svg">
<path d="M16.5 33C25.6127 33 33 25.6127 33 16.5C33 7.3873 25.6127 0 16.5 0C7.3873 0 0 7.3873 0 16.5C0 25.6127 7.3873 33 16.5 33Z" fill="#313042"/>
<path d="M13.2003 24.2784C13.3182 23.9248 13.5539 23.5712 13.6718 23.0998C13.6718 22.982 13.6718 22.7462 13.5539 22.6284C12.8468 21.6855 12.611 20.6248 12.8468 19.5641C12.8468 19.4462 12.8468 19.3284 12.9646 19.3284C12.9646 19.2105 13.0825 19.2105 13.0825 19.0927C13.9075 19.9177 14.1432 20.9784 14.261 22.0391C14.4968 21.5677 14.8503 21.0962 15.086 20.507C15.086 20.3891 14.9682 20.2712 14.9682 20.1534C14.261 19.0927 14.1432 17.9141 14.6146 16.6177C15.4396 17.4427 15.6753 18.5034 15.6753 19.5641C16.0289 19.0927 16.2646 18.6212 16.6182 18.2677C16.6182 18.1498 16.6182 18.032 16.5003 17.9141C16.1468 16.8534 16.1468 15.7927 16.736 14.732C16.8539 14.6141 16.8539 14.4962 16.9718 14.3784C17.561 15.3212 17.4432 16.2641 17.3253 17.207H17.4432C17.6789 16.8534 17.9146 16.6177 18.0325 16.2641C18.5039 14.9677 19.211 14.0248 20.5075 13.4355C20.7432 13.3177 20.861 13.3177 21.0968 13.1998C21.0968 13.4355 21.0968 13.5534 20.9789 13.7891C20.6253 14.9677 19.8003 15.9105 18.6218 16.4998C18.1503 16.7355 17.7968 17.0891 17.561 17.5605C18.5039 17.0891 19.4468 16.8534 20.6253 17.207C20.3896 17.4427 20.2718 17.5605 20.036 17.6784C19.211 18.2677 18.2682 18.5034 17.3253 18.3855C16.9718 18.3855 16.8539 18.3855 16.736 18.6212C16.5003 18.9748 16.2646 19.4462 16.0289 19.9177C17.0896 19.4462 18.1503 19.2105 19.3289 19.7998C18.9753 20.0355 18.7396 20.2712 18.5039 20.3891C17.6789 20.7427 16.8539 20.8605 15.911 20.6248C15.6753 20.507 15.5575 20.6248 15.4396 20.8605C15.2039 21.332 14.9682 21.8034 14.6146 22.3927C15.6753 21.9212 16.736 21.5677 17.9146 22.0391L18.0325 22.157C17.9146 22.2748 17.7968 22.2748 17.561 22.3927C16.6182 22.982 15.6753 23.2177 14.6146 23.0998C14.3789 22.982 14.1432 23.0998 14.1432 23.3355C13.7896 24.2784 13.436 25.2212 13.0825 26.0462C12.9646 26.3998 12.7289 26.7534 12.4932 27.107C12.3753 27.3427 12.1396 27.4605 11.9039 27.3427C8.72176 25.6927 6.48248 23.2177 5.65748 19.7998C4.00748 13.5534 7.42533 7.30696 13.5539 5.5391C20.6253 3.41768 27.5789 8.13196 28.6396 14.9677C29.4646 20.507 26.2825 25.8105 21.0968 27.6962C20.7432 27.8141 20.5075 27.932 20.2718 27.6962C20.036 27.3427 20.036 27.107 20.1539 26.7534C20.6253 25.5748 20.9789 24.3962 21.3325 23.2177C21.5682 22.5105 21.8039 22.2748 22.511 22.2748C23.2182 22.157 23.9253 22.157 24.6325 22.0391C25.2218 21.9212 25.4575 21.6855 25.4575 21.0962C25.4575 20.9784 25.4575 20.7427 25.4575 20.6248C25.3396 20.3891 25.4575 20.1534 25.6932 19.9177C25.9289 19.682 25.9289 19.5641 25.6932 19.3284C25.5753 19.2105 25.5753 18.9748 25.6932 18.9748C25.9289 18.7391 25.9289 18.5034 25.6932 18.2677C25.4575 18.032 25.5753 17.7962 25.811 17.6784C26.0468 17.5605 26.1646 17.4427 26.2825 17.207C26.636 16.9712 26.5182 16.7355 26.2825 16.4998C25.811 16.0284 25.2218 15.6748 24.7503 15.2034C24.3968 14.9677 24.2789 14.4962 24.3968 14.1427C24.5146 13.4355 24.3968 12.8462 24.0432 12.257C23.6896 11.7855 23.4539 11.1962 23.2182 10.7248C22.8646 9.89982 22.2753 9.31053 21.4503 9.07482C20.6253 8.8391 19.8003 8.72125 18.8575 8.60339C18.2682 8.48553 17.6789 8.48553 17.0896 8.36768C15.5575 8.13196 14.1432 8.48553 12.9646 9.54625C12.611 9.78196 12.2575 10.1355 11.786 10.2534C11.4325 10.3712 11.1968 10.7248 10.961 10.9605C10.8432 11.3141 10.6075 11.5498 10.2539 11.6677C9.66462 12.1391 9.07533 12.4927 8.6039 13.082C8.48605 13.3177 8.13248 13.4355 8.01462 13.5534C7.30748 14.0248 7.18962 14.4962 7.42533 15.2034C7.54319 15.6748 7.66105 16.1462 7.54319 16.6177C7.42533 16.9712 7.42533 17.4427 7.54319 17.7962C7.54319 18.2677 7.89676 18.7391 8.36819 18.857C8.72176 18.9748 8.95747 19.2105 8.95747 19.5641C9.07533 20.0355 9.31105 20.507 9.66462 20.8605C10.0182 21.2141 10.2539 21.6855 10.4896 22.157C10.7253 22.7462 11.0789 23.0998 11.6682 23.3355C12.2575 23.5712 12.7289 23.807 13.3182 24.0427C12.9646 24.1605 13.0825 24.1605 13.2003 24.2784Z" fill="#00DACC"/>
</svg>
