<svg width="35" height="46" viewBox="0 0 31 40" fill="none" xmlns="http://www.w3.org/2000/svg">
<path d="M15.2304 0C7.08397 0 0.485063 6.60435 0.479614 14.7508C0.479614 15.6826 0.5668 16.6144 0.741172 17.5299L2.64837 16.2275C5.99959 13.928 11.4324 13.928 14.7781 16.2275L16.778 17.6007L17.8624 18.3472C20.8812 20.4179 25.7745 20.4179 28.7879 18.3472L29.6761 17.7424C31.3108 9.7594 26.1668 1.96169 18.1839 0.321499C17.2139 0.119881 16.2276 0.0217966 15.2359 0.0217966L15.2304 0Z" fill="#F2B705"/>
<path d="M23.5184 23.611C21.4096 23.6491 19.3389 23.0606 17.5734 21.9218L14.4946 19.8129C11.078 17.715 6.76776 17.715 3.3457 19.8129L1.35677 21.1752C0.964428 21.4477 0.424964 21.3442 0.152507 20.9518C-0.11995 20.5595 -0.0164161 20.02 0.375922 19.7476L2.36486 18.3853C6.37542 15.895 11.454 15.895 15.4646 18.3853L18.5433 20.4941C21.5894 22.3631 25.4311 22.3631 28.4771 20.4941L29.6432 19.6931C30.0356 19.4206 30.575 19.5241 30.8475 19.9165C31.12 20.3088 31.0164 20.8483 30.6241 21.1207L29.458 21.9218C27.6924 23.0552 25.6218 23.6437 23.5184 23.611Z" fill="#53CBC8"/>
<path d="M8.85487 29.8068V21.4696C8.84942 21.2953 8.85487 21.1209 8.87667 20.9465C8.93116 20.4724 9.33439 20.1128 9.81392 20.1128C10.2771 20.1291 10.6531 20.4833 10.6967 20.9465C10.7348 21.2353 10.7403 21.5296 10.7294 21.8184V38.4382C10.7512 38.9777 10.3316 39.4245 9.79212 39.4463C9.78667 39.4463 9.78123 39.4463 9.77578 39.4463C9.24721 39.4191 8.84397 38.9668 8.87122 38.4382C8.87122 38.4219 8.87122 38.4055 8.87667 38.3946V32.8474L8.85487 29.8068Z" fill="#53CBC8"/>
<path d="M7.10567 25.6112V29.7525C7.10567 30.4609 6.71878 30.9187 6.19021 30.9187C5.6671 30.9187 5.24751 30.4228 5.24207 29.7525V21.4644C5.24207 20.7397 5.6671 20.2493 6.21746 20.2983C6.76782 20.3473 7.09477 20.7615 7.10022 21.4917C7.10567 22.8485 7.10567 24.2271 7.10567 25.6112Z" fill="#53CBC8"/>
<path d="M12.4836 25.6054V22.701C12.4836 22.0253 12.8433 21.5894 13.3773 21.5894C13.9277 21.6166 14.3581 22.0852 14.3309 22.6356C14.3309 22.6465 14.3309 22.6628 14.3309 22.6737C14.3472 24.6518 14.3472 26.6298 14.3309 28.6133C14.3309 29.289 13.944 29.6977 13.3828 29.6868C12.8269 29.6813 12.4891 29.2672 12.4836 28.5751V25.6054Z" fill="#53CBC8"/>
<path d="M1.63477 26.2051V23.2952C1.63477 22.6195 1.99441 22.1836 2.52843 22.1836C3.07879 22.2108 3.50927 22.6795 3.48202 23.2298C3.48202 23.2407 3.48202 23.2571 3.48202 23.268C3.49837 25.2515 3.49837 27.2295 3.48202 29.213C3.48202 29.8887 3.09513 30.2919 2.53932 30.2865C1.98896 30.281 1.64021 29.8669 1.63477 29.1748V26.2051Z" fill="#53CBC8"/>
<path d="M17.001 23.731C17.5078 23.731 17.9165 24.1396 17.9165 24.6464V26.2267C17.9165 26.7334 17.5078 27.1421 17.001 27.1421C16.4943 27.1421 16.0856 26.7334 16.0856 26.2267V24.6464C16.091 24.1451 16.4997 23.731 17.001 23.731Z" fill="#53CBC8"/>
<path d="M20.6248 25.1208C21.1316 25.1208 21.5403 25.5295 21.5403 26.0363V34.9129C21.5403 35.4197 21.1316 35.8284 20.6248 35.8284C20.118 35.8284 19.7094 35.4197 19.7094 34.9129V26.0363C19.7094 25.5295 20.118 25.1208 20.6248 25.1208Z" fill="#53CBC8"/>
<path d="M24.2267 25.4639C24.7335 25.4639 25.1422 25.8726 25.1422 26.3793V33.9209C25.1422 34.4277 24.7335 34.8364 24.2267 34.8364C23.72 34.8364 23.3113 34.4277 23.3113 33.9209V26.3793C23.3113 25.8726 23.72 25.4639 24.2267 25.4639Z" fill="#53CBC8"/>
<path d="M27.8726 24.603C28.3794 24.603 28.7881 25.0117 28.7881 25.5185V28.7716C28.7881 29.2784 28.3794 29.6871 27.8726 29.6871C27.3658 29.6871 26.9572 29.2784 26.9572 28.7716V25.5185C26.9572 25.0117 27.3713 24.603 27.8726 24.603Z" fill="#53CBC8"/>
</svg>
