<svg width="46" height="40" viewBox="0 0 35 31" fill="none" xmlns="http://www.w3.org/2000/svg">
<path d="M26.5013 9.41253C25.8616 9.047 25.0392 9.047 24.3081 9.41253L19.1906 12.4282L15.718 14.3473L10.6919 17.3629C10.0522 17.7285 9.22977 17.7285 8.4987 17.3629L4.56919 14.9869C3.9295 14.6214 3.47258 13.8903 3.47258 13.0679V8.4987C3.47258 7.76762 3.83812 7.03655 4.56919 6.57963L8.4987 4.29504C9.13838 3.9295 9.96084 3.9295 10.6919 4.29504L14.6214 6.67102C15.2611 7.03655 15.718 7.76762 15.718 8.59008V11.6057L19.1906 9.5953V6.48825C19.1906 5.75718 18.8251 5.02611 18.094 4.56919L10.7833 0.274151C10.1436 -0.0913838 9.32115 -0.0913838 8.59008 0.274151L1.09661 4.66057C0.365535 5.02611 0 5.75718 0 6.48825V15.0783C0 15.8094 0.365535 16.5405 1.09661 16.9974L8.4987 21.2924C9.13838 21.658 9.96084 21.658 10.6919 21.2924L15.718 18.3681L19.1906 16.3577L24.2167 13.4334C24.8564 13.0679 25.6789 13.0679 26.4099 13.4334L30.3394 15.718C30.9791 16.0836 31.436 16.8146 31.436 17.6371V22.2063C31.436 22.9373 31.0705 23.6684 30.3394 24.1253L26.5013 26.4099C25.8616 26.7755 25.0392 26.7755 24.3081 26.4099L20.3786 24.1253C19.7389 23.7598 19.282 23.0287 19.282 22.2063V19.282L15.8094 21.2924V24.3081C15.8094 25.0392 16.1749 25.7702 16.906 26.2272L24.3081 30.5222C24.9478 30.8877 25.7702 30.8877 26.5013 30.5222L33.9034 26.2272C34.5431 25.8616 35 25.1305 35 24.3081V15.6266C35 14.8956 34.6345 14.1645 33.9034 13.7076L26.5013 9.41253Z" fill="#8247E5"/>
</svg>
