<svg width="38" height="32" viewBox="0 0 33 27" fill="none" xmlns="http://www.w3.org/2000/svg">
<path d="M5.36145 20.6075C5.56058 20.3996 5.83437 20.2783 6.12476 20.2783H32.459C32.9403 20.2783 33.1809 20.8847 32.8407 21.2398L27.6386 26.671C27.4394 26.8789 27.1656 27.0002 26.8752 27.0002H0.540969C0.0597506 27.0002 -0.180859 26.3938 0.159313 26.0387L5.36145 20.6075Z" fill="url(#paint0_linear_311_1218)"/>
<path d="M5.36145 0.329163C5.56887 0.12127 5.84267 0 6.12476 0H32.459C32.9403 0 33.1809 0.606352 32.8407 0.961501L27.6386 6.39268C27.4394 6.60058 27.1656 6.72185 26.8752 6.72185H0.540969C0.0597506 6.72185 -0.180859 6.1155 0.159313 5.76035L5.36145 0.329163Z" fill="url(#paint1_linear_311_1218)"/>
<path d="M27.6386 10.4031C27.4394 10.1952 27.1656 10.074 26.8752 10.074H0.540969C0.0597506 10.074 -0.180859 10.6803 0.159313 11.0355L5.36145 16.4667C5.56058 16.6746 5.83437 16.7958 6.12476 16.7958H32.459C32.9403 16.7958 33.1809 16.1895 32.8407 15.8343L27.6386 10.4031Z" fill="url(#paint2_linear_311_1218)"/>
<defs>
<linearGradient id="paint0_linear_311_1218" x1="29.9433" y1="-3.24428" x2="10.4534" y2="32.5125" gradientUnits="userSpaceOnUse">
<stop stop-color="#00FFA3"/>
<stop offset="1" stop-color="#DC1FFF"/>
</linearGradient>
<linearGradient id="paint1_linear_311_1218" x1="21.9742" y1="-7.58819" x2="2.48425" y2="28.1686" gradientUnits="userSpaceOnUse">
<stop stop-color="#00FFA3"/>
<stop offset="1" stop-color="#DC1FFF"/>
</linearGradient>
<linearGradient id="paint2_linear_311_1218" x1="25.9334" y1="-5.43028" x2="6.44346" y2="30.3265" gradientUnits="userSpaceOnUse">
<stop stop-color="#00FFA3"/>
<stop offset="1" stop-color="#DC1FFF"/>
</linearGradient>
</defs>
</svg>
