<svg width="31" height="33" viewBox="0 0 31 33" fill="none" xmlns="http://www.w3.org/2000/svg">
<path d="M30.5784 9.82628C29.0494 8.41458 26.9344 6.2588 25.2119 4.72989L25.1099 4.65854C24.9403 4.52235 24.7491 4.41555 24.5442 4.34256C20.3907 3.56791 1.06005 -0.0454347 0.682917 0.000432819C0.577242 0.0152328 0.476233 0.0535467 0.387326 0.112553L0.290494 0.188999C0.171261 0.31009 0.0807019 0.456379 0.025482 0.617096L0 0.683349V1.04519V1.10125C2.17616 7.16087 10.7687 27.0113 12.4607 31.6694C12.5626 31.9854 12.7563 32.5868 13.1181 32.6173H13.1997C13.3933 32.6173 14.2189 31.5267 14.2189 31.5267C14.2189 31.5267 28.9781 13.6282 30.4713 11.7221C30.6646 11.4874 30.8353 11.2348 30.981 10.9679C31.0182 10.759 31.0006 10.5441 30.9301 10.344C30.8595 10.144 30.7383 9.96559 30.5784 9.82628ZM18.0056 11.9107L24.3047 6.6869L27.9996 10.0913L18.0056 11.9107ZM15.5593 11.5692L4.71416 2.68114L22.261 5.91735L15.5593 11.5692ZM16.5378 13.8983L27.6377 12.1095L14.9477 27.3986L16.5378 13.8983ZM3.24131 3.56791L14.6521 13.2511L13.0009 27.4088L3.24131 3.56791Z" fill="#FF060A"/>
</svg>
