<svg width="55" height="33" viewBox="0 0 55 33" fill="none" xmlns="http://www.w3.org/2000/svg">
<path d="M16.3958 0.0584713C37.6977 -0.150363 38.9507 0.267327 38.9507 0.267327C35.622 3.86242 30.9449 5.9061 26.0454 5.9061H17.44C12.1331 5.9061 7.20672 9.87466 6.58027 14.6774C5.32722 24.2841 14.5163 27.2079 14.5163 27.2079L10.3394 32.0113C10.3394 32.0113 -2.11764 26.5261 0.314945 13.6332C2.40332 2.56457 12.8396 0.0933354 16.3958 0.0584713Z" fill="#356AF0"/>
<path d="M38.6042 32.7881C17.3023 32.997 16.0493 32.5793 16.0493 32.5793C19.3781 28.9842 24.0551 26.9405 28.9546 26.9405L37.56 26.9405C42.8669 26.9405 47.7933 22.972 48.4198 18.1692C49.6728 8.5625 40.4838 5.63871 40.4838 5.63871L44.6606 0.835357C44.6606 0.835357 57.1177 6.32051 54.6851 19.2134C52.5967 30.282 42.1605 32.7533 38.6042 32.7881Z" fill="#356AF0"/>
</svg>
